# xmcd
# Track frame offsets:
# 150
# 12052
# 26005
# 40472
# 54045
# 66252
# 79197
# 95512
# 106010
# 121097
# 135532
# 147925
# 158402
#
# Disc length: 2282 seconds
# Revision: 0
# Processed by: cddbd v1.5.1PL2 Copyright (c) Steve Scherf et al.
# Submitted via: VisiTrax 2.9.10.228 - For more info visit www.synapsa.com
#
DISCID=9908e80d
DTITLE=Tony Martin - Back to Bakersfield
DYEAR=1900
DGENRE=Country
TTITLE0=All by my self again
TTITLE1=It must have been something I drank
TTITLE2=Give my heart a break
TTITLE3=I'll sleep tight tonight
TTITLE4=Go ahead and leave me. it's okay
TTITLE5=Think I'll step out and two step tonight
TTITLE6=Love sometimes paint a rainbow
TTITLE7=My temperature rises when the sun goes down
TTITLE8=You've already said goodbye
TTITLE9=I'm takin' me away from you
TTITLE10=It's gonna be love
TTITLE11=I'll have to let you go
TTITLE12=Back to Bakersfield
EXTD=
EXTT0=
EXTT1=
EXTT2=
EXTT3=
EXTT4=
EXTT5=
EXTT6=
EXTT7=
EXTT8=
EXTT9=
EXTT10=
EXTT11=
EXTT12=
PLAYORDER=
